<mxfile host="app.diagrams.net" agent="Mozilla/5.0 (Windows NT 10.0; Win64; x64) AppleWebKit/537.36 (KHTML, like Gecko) Chrome/135.0.0.0 Safari/537.36 Edg/135.0.0.0" version="26.2.8">
  <diagram name="第 1 页" id="PV2R-vplqXGCu60o4-TH">
    <mxGraphModel dx="1365" dy="912" grid="1" gridSize="10" guides="1" tooltips="1" connect="1" arrows="1" fold="1" page="1" pageScale="1" pageWidth="827" pageHeight="1169" math="0" shadow="0">
      <root>
        <mxCell id="0" />
        <mxCell id="1" parent="0" />
        <mxCell id="qUWe9MtobZV6bk2bPbgI-1" value="" style="edgeStyle=orthogonalEdgeStyle;rounded=0;orthogonalLoop=1;jettySize=auto;html=1;" edge="1" parent="1" source="C1b9kC5_DB_zs8LywHrQ-2" target="C1b9kC5_DB_zs8LywHrQ-4">
          <mxGeometry relative="1" as="geometry" />
        </mxCell>
        <mxCell id="C1b9kC5_DB_zs8LywHrQ-2" value="开始" style="rounded=1;whiteSpace=wrap;html=1;arcSize=50;" parent="1" vertex="1">
          <mxGeometry x="20" y="240" width="120" height="40" as="geometry" />
        </mxCell>
        <mxCell id="qUWe9MtobZV6bk2bPbgI-2" value="" style="edgeStyle=orthogonalEdgeStyle;rounded=0;orthogonalLoop=1;jettySize=auto;html=1;" edge="1" parent="1" source="C1b9kC5_DB_zs8LywHrQ-4" target="C1b9kC5_DB_zs8LywHrQ-6">
          <mxGeometry relative="1" as="geometry" />
        </mxCell>
        <mxCell id="C1b9kC5_DB_zs8LywHrQ-4" value="点击下载模板.xlsx文件" style="rounded=0;whiteSpace=wrap;html=1;" parent="1" vertex="1">
          <mxGeometry x="195" y="230" width="120" height="60" as="geometry" />
        </mxCell>
        <mxCell id="C1b9kC5_DB_zs8LywHrQ-5" style="edgeStyle=orthogonalEdgeStyle;rounded=0;orthogonalLoop=1;jettySize=auto;html=1;" parent="1" source="C1b9kC5_DB_zs8LywHrQ-6" target="C1b9kC5_DB_zs8LywHrQ-8" edge="1">
          <mxGeometry relative="1" as="geometry" />
        </mxCell>
        <mxCell id="C1b9kC5_DB_zs8LywHrQ-6" value="按照文件填写数据" style="rounded=0;whiteSpace=wrap;html=1;" parent="1" vertex="1">
          <mxGeometry x="370" y="230" width="120" height="60" as="geometry" />
        </mxCell>
        <mxCell id="qUWe9MtobZV6bk2bPbgI-3" value="" style="edgeStyle=orthogonalEdgeStyle;rounded=0;orthogonalLoop=1;jettySize=auto;html=1;" edge="1" parent="1" source="C1b9kC5_DB_zs8LywHrQ-8" target="C1b9kC5_DB_zs8LywHrQ-13">
          <mxGeometry relative="1" as="geometry" />
        </mxCell>
        <mxCell id="C1b9kC5_DB_zs8LywHrQ-8" value="点击导入，上传文件" style="rounded=0;whiteSpace=wrap;html=1;" parent="1" vertex="1">
          <mxGeometry x="545" y="230" width="120" height="60" as="geometry" />
        </mxCell>
        <mxCell id="qUWe9MtobZV6bk2bPbgI-4" value="" style="edgeStyle=orthogonalEdgeStyle;rounded=0;orthogonalLoop=1;jettySize=auto;html=1;" edge="1" parent="1" source="C1b9kC5_DB_zs8LywHrQ-13" target="C1b9kC5_DB_zs8LywHrQ-15">
          <mxGeometry relative="1" as="geometry" />
        </mxCell>
        <mxCell id="qUWe9MtobZV6bk2bPbgI-9" value="允许" style="edgeLabel;html=1;align=center;verticalAlign=middle;resizable=0;points=[];" vertex="1" connectable="0" parent="qUWe9MtobZV6bk2bPbgI-4">
          <mxGeometry x="-0.4169" y="-1" relative="1" as="geometry">
            <mxPoint as="offset" />
          </mxGeometry>
        </mxCell>
        <mxCell id="qUWe9MtobZV6bk2bPbgI-5" value="" style="edgeStyle=orthogonalEdgeStyle;rounded=0;orthogonalLoop=1;jettySize=auto;html=1;" edge="1" parent="1" source="C1b9kC5_DB_zs8LywHrQ-13" target="C1b9kC5_DB_zs8LywHrQ-18">
          <mxGeometry relative="1" as="geometry" />
        </mxCell>
        <mxCell id="qUWe9MtobZV6bk2bPbgI-6" value="不允许" style="edgeLabel;html=1;align=center;verticalAlign=middle;resizable=0;points=[];" vertex="1" connectable="0" parent="qUWe9MtobZV6bk2bPbgI-5">
          <mxGeometry x="-0.1216" y="-1" relative="1" as="geometry">
            <mxPoint as="offset" />
          </mxGeometry>
        </mxCell>
        <mxCell id="C1b9kC5_DB_zs8LywHrQ-13" value="是否勾选允许更新" style="rhombus;whiteSpace=wrap;html=1;" parent="1" vertex="1">
          <mxGeometry x="705" y="220" width="150" height="80" as="geometry" />
        </mxCell>
        <mxCell id="C1b9kC5_DB_zs8LywHrQ-14" style="edgeStyle=orthogonalEdgeStyle;rounded=0;orthogonalLoop=1;jettySize=auto;html=1;" parent="1" source="C1b9kC5_DB_zs8LywHrQ-15" target="C1b9kC5_DB_zs8LywHrQ-16" edge="1">
          <mxGeometry relative="1" as="geometry" />
        </mxCell>
        <mxCell id="C1b9kC5_DB_zs8LywHrQ-15" value="插入和更新学生信息" style="rounded=0;whiteSpace=wrap;html=1;" parent="1" vertex="1">
          <mxGeometry x="920" y="230" width="120" height="60" as="geometry" />
        </mxCell>
        <mxCell id="C1b9kC5_DB_zs8LywHrQ-16" value="结束" style="rounded=1;whiteSpace=wrap;html=1;arcSize=50;" parent="1" vertex="1">
          <mxGeometry x="1070" y="240" width="120" height="40" as="geometry" />
        </mxCell>
        <mxCell id="qUWe9MtobZV6bk2bPbgI-7" style="edgeStyle=orthogonalEdgeStyle;rounded=0;orthogonalLoop=1;jettySize=auto;html=1;entryX=0.5;entryY=1;entryDx=0;entryDy=0;" edge="1" parent="1" source="C1b9kC5_DB_zs8LywHrQ-18" target="C1b9kC5_DB_zs8LywHrQ-16">
          <mxGeometry relative="1" as="geometry" />
        </mxCell>
        <mxCell id="C1b9kC5_DB_zs8LywHrQ-18" value="插入新的学生信息" style="rounded=0;whiteSpace=wrap;html=1;" parent="1" vertex="1">
          <mxGeometry x="720" y="370" width="120" height="60" as="geometry" />
        </mxCell>
      </root>
    </mxGraphModel>
  </diagram>
</mxfile>
